<svg xmlns="http://www.w3.org/2000/svg" viewBox="0 9.25 150.1999969482422 49.70000076293945" data-asc="0.959" width="150.1999969482422" height="49.70000076293945"><defs/><g fill="#ffffff"><g transform="translate(0, 0)"><path d="M17.55 18.80L6.90 18.80L6.60 28.00L16.15 28.00L15.60 33.30L6.45 33.30L6.40 34.95L7 47.95L0 47.95L0.60 35.80L0 13.45L18.10 13.45L17.55 18.80ZM27.85 9.25L27.20 34.95L27.75 46.70L21 47.95L21.60 35.80L21 10.50L27.85 9.25ZM34.35 57.60L39.50 46.05L35.80 35.95L30.75 23.80L37.40 22.55L40.60 33.20L42.25 38.25L42.90 38.25L44.10 34.60L47.70 22.50L53.85 23.25L45 46.50L40.80 58.95L34.35 57.60ZM70.05 48.50Q63.50 48.50 59.50 44.10Q55.50 39.70 55.50 32.45Q55.50 24.20 60.50 18.55Q65.50 12.90 72.80 12.90Q75.70 12.90 78.17 13.42Q80.65 13.95 81.70 14.50L82.70 15.05L79.80 22.00Q78.30 21.00 75.75 20.12Q73.20 19.25 71.25 19.25Q67.20 19.25 64.75 22.10Q62.30 24.95 62.30 29.65Q62.30 36.00 64.63 39.55Q66.95 43.10 71.10 43.10Q73.80 43.10 76.20 42.35L76.20 34.60L69.75 34.60L70.25 29.55L82.25 29.55L81.80 37.70L82.15 46.35Q74.80 48.50 70.05 48.50ZM88.15 23.80L94.20 22.50Q94.65 26.35 94.80 29.80Q99.35 22.75 103.35 22.75L102.80 30.55Q99.90 30.55 98.22 31.07Q96.55 31.60 94.80 33.15L94.80 34.95L95.35 46.70L88.65 47.95L89.25 35.80Q89.05 29.10 88.15 23.80ZM111.50 47.95Q108.55 47.95 106.67 46.07Q104.80 44.20 104.80 41.02Q104.80 37.85 107.70 35.52Q110.60 33.20 114.75 33.20L118.15 33.20L118.15 32.35Q118.15 29.90 117.15 29.00Q116.15 28.10 113.40 28.10Q112.25 28.10 110.67 28.57Q109.10 29.05 107.15 30.05L105.70 26.10Q107.85 24.60 110.92 23.40Q114 22.20 116 22.20Q123.85 22.20 123.85 29.80L123.85 39.60Q123.85 42.40 125.60 45.85L120.30 48.10Q119.05 45.70 118.45 43.80Q115.70 47.95 111.50 47.95M113.60 42.85Q115.60 42.85 118.15 40.80L118.15 37.45Q115.50 36.85 113.85 36.85Q110.70 36.85 110.70 39.65Q110.70 41.10 111.50 41.97Q112.30 42.85 113.60 42.85ZM143.15 43.05Q139.25 47.95 136.40 47.95Q132.85 47.95 130.57 45.05Q128.30 42.15 128.30 37.60Q128.30 31.35 131.78 27.05Q135.25 22.75 140.30 22.75L143.10 23.15L143.10 22.20L142.50 10.50L149.35 9.25L148.70 34.95L148.70 39.35Q148.70 42.35 150.20 46.25L144.80 48.50Q143.35 45.50 143.15 43.05M133.90 35.00Q133.90 35.00 133.90 36.60Q133.90 38.20 135.07 40.00Q136.25 41.80 138.47 41.80Q140.70 41.80 143.10 40.00L143.10 29.20Q140.10 28.60 138.65 28.60Q136.40 28.60 135.15 30.20Q133.90 31.80 133.90 35.00Z"/></g></g></svg>